<?xml version="1.0" encoding="utf-8"?>
<!-- Generator: Adobe Illustrator 21.1.0, SVG Export Plug-In . SVG Version: 6.00 Build 0)  -->
<svg version="1.1" id="Mode_Isolation" xmlns="http://www.w3.org/2000/svg" xmlns:xlink="http://www.w3.org/1999/xlink" x="0px"
	 y="0px" viewBox="0 0 2511 1000" style="enable-background:new 0 0 2511 1000;" xml:space="preserve">
<path d="M492.2,740.8H282.7c-27.6,0-55.1-10.5-76.1-31.5c-21-21-31.5-48.6-31.5-76.1V259.2h182.6c34.4,0,68.9,13.1,95.1,39.4
	c26.3,26.3,39.4,60.7,39.4,95.1V740.8z"/>
<path d="M507.8,740.8h209.4c27.6,0,55.1-10.5,76.1-31.5c21-21,31.5-48.6,31.5-76.1V259.2H642.4c-34.4,0-68.9,13.1-95.1,39.4
	c-26.3,26.3-39.4,60.7-39.4,95.1V740.8z"/>
<path d="M1023.4,321.4c-1.2-7.4-5-11.8-10-14.4c-5-2.7-11.2-3.8-18-3.8c-15.3,0-22.1,4.4-22.1,12.1c0,31.8,122.1,12.1,122.1,89.3
	c0,49.2-41,73.1-99.4,73.1c-56,0-92.6-32.7-94.1-71.1h66.6c1.5,7.7,5.6,13.3,11.5,16.8c5.6,3.5,13,5.3,19.8,5.3
	c17.4,0,28.9-5.6,28.9-15.6c0-32.1-122.1-10-122.1-91.1c0-45.1,38.9-67.8,92-67.8c59,0,85.8,30.1,90.8,67.2H1023.4z"/>
<path d="M1127.2,259.7h69.6v68.7l61-68.7h81.7l-77.5,79.9l85.8,132.4h-83.4l-51-84.6l-16.5,17.4V472h-69.6V259.7z"/>
<path d="M1373.1,472V259.7h69.6V472H1373.1z"/>
<path d="M1487.8,472V259.7h69.6v162.8h95.5V472H1487.8z"/>
<path d="M1684.4,472V259.7h69.6v162.8h95.5V472H1684.4z"/>
<path d="M896.1,701.9l18-10.8c12.7,23.3,27.3,35,43.9,35c7.1,0,13.8-1.7,20-5c6.2-3.3,11-7.7,14.3-13.3c3.3-5.6,4.9-11.5,4.9-17.7
	c0-7.1-2.4-14.1-7.2-20.9c-6.6-9.4-18.7-20.7-36.3-34c-17.7-13.3-28.6-23-33-28.9c-7.5-10-11.2-20.8-11.2-32.4
	c0-9.2,2.2-17.6,6.6-25.2c4.4-7.6,10.6-13.6,18.6-17.9c8-4.4,16.7-6.5,26.1-6.5c10,0,19.3,2.5,28,7.4c8.7,4.9,17.9,14,27.6,27.3
	l-17.3,13.1c-8-10.6-14.8-17.5-20.4-20.9c-5.6-3.4-11.7-5-18.4-5c-8.5,0-15.5,2.6-20.9,7.8c-5.4,5.2-8.1,11.6-8.1,19.1
	c0,4.6,1,9.1,2.9,13.4s5.4,9,10.5,14.1c2.8,2.7,11.9,9.7,27.4,21.2c18.3,13.5,30.9,25.6,37.7,36.1c6.8,10.6,10.2,21.2,10.2,31.8
	c0,15.4-5.8,28.7-17.5,40c-11.7,11.3-25.8,17-42.5,17c-12.9,0-24.5-3.4-35-10.3C914.6,729.5,904.9,718,896.1,701.9z"/>
<path d="M1165.7,524.3c32.1,0,58.9,10.7,80.5,32.1c21.6,21.4,32.4,47.7,32.4,79c0,31-10.8,57.3-32.3,78.9
	c-21.6,21.6-47.8,32.4-78.9,32.4c-31.4,0-57.9-10.7-79.5-32.2c-21.6-21.5-32.4-47.5-32.4-78c0-20.3,4.9-39.2,14.8-56.6
	c9.8-17.4,23.3-31,40.3-40.8C1127.5,529.2,1145.9,524.3,1165.7,524.3z M1166.6,544.9c-15.7,0-30.5,4.1-44.6,12.2
	c-14,8.2-25,19.2-32.9,33c-7.9,13.8-11.8,29.2-11.8,46.2c0,25.2,8.7,46.4,26.2,63.8c17.4,17.3,38.5,26,63.1,26
	c16.4,0,31.6-4,45.6-12c14-8,24.9-18.9,32.7-32.7c7.8-13.8,11.8-29.2,11.8-46.1c0-16.8-3.9-32-11.8-45.6
	c-7.8-13.6-18.9-24.5-33.1-32.6C1197.6,548.9,1182.6,544.9,1166.6,544.9z"/>
<path d="M1321.1,529.6h21.2v191.3h81.5v20.4h-102.6V529.6z"/>
<path d="M1458,529.6h21.2v127.8c0,15.2,0.3,24.6,0.9,28.4c1.1,8.4,3.5,15.3,7.3,20.9c3.8,5.6,9.7,10.3,17.7,14.1
	c8,3.8,16,5.7,24,5.7c7,0,13.7-1.5,20.2-4.5c6.4-3,11.8-7.1,16.1-12.4c4.3-5.3,7.5-11.7,9.5-19.1c1.4-5.4,2.2-16.4,2.2-33.1V529.6
	h21.2v127.8c0,18.9-1.8,34.2-5.5,45.9c-3.7,11.7-11.1,21.8-22.2,30.4c-11.1,8.6-24.5,13-40.2,13c-17.1,0-31.7-4.1-43.9-12.2
	c-12.2-8.2-20.3-19-24.5-32.4c-2.6-8.3-3.9-23.1-3.9-44.6V529.6z"/>
<path d="M1629.3,550.3v-20.7h116v20.7h-47.2v191h-21.6v-191H1629.3z"/>
<path d="M1772.8,529.6h21.2v211.8h-21.2V529.6z"/>
<path d="M1943.3,524.3c32.1,0,58.9,10.7,80.5,32.1c21.6,21.4,32.4,47.7,32.4,79c0,31-10.8,57.3-32.3,78.9
	c-21.6,21.6-47.8,32.4-78.9,32.4c-31.4,0-57.9-10.7-79.5-32.2c-21.6-21.5-32.4-47.5-32.4-78c0-20.3,4.9-39.2,14.8-56.6
	c9.8-17.4,23.3-31,40.3-40.8C1905.1,529.2,1923.5,524.3,1943.3,524.3z M1944.3,544.9c-15.7,0-30.5,4.1-44.6,12.2
	c-14,8.2-25,19.2-32.9,33c-7.9,13.8-11.8,29.2-11.8,46.2c0,25.2,8.7,46.4,26.2,63.8c17.4,17.3,38.5,26,63.1,26
	c16.4,0,31.6-4,45.6-12c14-8,24.9-18.9,32.7-32.7c7.8-13.8,11.8-29.2,11.8-46.1c0-16.8-3.9-32-11.8-45.6
	c-7.8-13.6-18.9-24.5-33.1-32.6C1975.3,548.9,1960.2,544.9,1944.3,544.9z"/>
<path d="M2098.9,741.4V529.6h4.6l140.9,162.3V529.6h20.9v211.8h-4.8L2120.8,581v160.4H2098.9z"/>
<path d="M2294.9,701.9l18-10.8c12.7,23.3,27.3,35,43.9,35c7.1,0,13.8-1.7,20-5c6.2-3.3,11-7.7,14.3-13.3c3.3-5.6,4.9-11.5,4.9-17.7
	c0-7.1-2.4-14.1-7.2-20.9c-6.6-9.4-18.7-20.7-36.3-34c-17.7-13.3-28.6-23-33-28.9c-7.5-10-11.2-20.8-11.2-32.4
	c0-9.2,2.2-17.6,6.6-25.2c4.4-7.6,10.6-13.6,18.6-17.9c8-4.4,16.7-6.5,26.1-6.5c10,0,19.3,2.5,28,7.4c8.7,4.9,17.9,14,27.6,27.3
	l-17.3,13.1c-8-10.6-14.8-17.5-20.4-20.9c-5.6-3.4-11.7-5-18.4-5c-8.5,0-15.5,2.6-20.9,7.8c-5.4,5.2-8.1,11.6-8.1,19.1
	c0,4.6,1,9.1,2.9,13.4c1.9,4.3,5.4,9,10.5,14.1c2.8,2.7,11.9,9.7,27.4,21.2c18.3,13.5,30.9,25.6,37.7,36.1
	c6.8,10.6,10.2,21.2,10.2,31.8c0,15.4-5.8,28.7-17.5,40c-11.7,11.3-25.8,17-42.5,17c-12.9,0-24.5-3.4-35-10.3
	C2313.4,729.5,2303.8,718,2294.9,701.9z"/>
</svg>
