<?xml version="1.0" encoding="utf-8"?>
<!-- Generator: Adobe Illustrator 21.1.0, SVG Export Plug-In . SVG Version: 6.00 Build 0)  -->
<svg version="1.1" id="Mode_Isolation" xmlns="http://www.w3.org/2000/svg" xmlns:xlink="http://www.w3.org/1999/xlink" x="0px"
	 y="0px" viewBox="0 0 649.9 481.6" style="enable-background:new 0 0 649.9 481.6;" xml:space="preserve">
<style type="text/css">
	.st0{fill:#FFFFFF;}
</style>
<path class="st0" d="M317.1,481.6H107.7c-27.6,0-55.1-10.5-76.1-31.5C10.5,429,0,401.4,0,373.9V0h182.6c34.4,0,68.9,13.1,95.1,39.4
	c26.3,26.3,39.4,60.7,39.4,95.1V481.6z"/>
<path class="st0" d="M332.8,481.6h209.4c27.6,0,55.1-10.5,76.1-31.5s31.5-48.6,31.5-76.1V0H467.3c-34.4,0-68.9,13.1-95.1,39.4
	c-26.3,26.3-39.4,60.7-39.4,95.1V481.6z"/>
</svg>
